<?xml version="1.0" standalone="no"?>
<!DOCTYPE svg PUBLIC "-//W3C//DTD SVG 20010904//EN"
 "http://www.w3.org/TR/2001/REC-SVG-20010904/DTD/svg10.dtd">
<svg version="1.0" xmlns="http://www.w3.org/2000/svg"
 width="530.000000pt" height="530.000000pt" viewBox="0 0 530.000000 530.000000"
 preserveAspectRatio="xMidYMid meet">
<metadata>
Created by potrace 1.11, written by Peter Selinger 2001-2013
</metadata>
<g transform="translate(0.000000,530.000000) scale(0.100000,-0.100000)"
fill="#000000" stroke="none">
<path d="M329 5216 c-102 -27 -184 -99 -231 -202 l-23 -49 0 -2235 0 -2235 27
-55 c36 -71 48 -90 77 -116 16 -15 22 -28 17 -41 -5 -16 -5 -16 9 1 12 16 15
17 15 4 0 -9 8 -15 17 -14 12 0 18 -6 18 -18 0 -11 7 -21 15 -23 12 -4 12 -3
1 5 -9 6 -10 12 -3 16 14 9 34 -28 26 -48 -3 -9 -1 -16 4 -16 6 0 9 14 7 32
-3 18 -1 28 3 22 4 -6 15 -10 24 -9 11 2 15 -2 11 -12 -5 -12 -7 -12 -14 -1
-5 7 -9 8 -9 2 0 -19 13 -24 28 -12 15 13 61 19 60 9 -2 -21 4 -22 18 -5 8 10
12 13 9 6 -4 -7 1 -22 12 -34 10 -11 17 -23 15 -26 -2 -4 2 -8 10 -10 10 -3
10 -2 -1 6 -8 6 -9 12 -3 16 6 3 13 2 17 -4 4 -6 11 -8 16 -5 5 4 9 1 9 -4 0
-12 27 -10 47 2 6 4 14 3 18 -3 9 -14 32 -12 38 3 3 8 -1 14 -9 14 -7 0 -11
-5 -7 -10 3 -5 -4 -4 -14 2 -11 6 -23 7 -27 4 -3 -3 -6 -1 -6 5 0 7 12 10 30
8 33 -4 51 10 23 17 -15 4 -15 5 -2 6 9 0 24 -9 35 -21 10 -12 13 -18 6 -14
-11 7 -11 4 0 -13 7 -12 14 -17 16 -12 2 5 13 7 25 5 21 -4 21 -4 2 5 -11 4
-23 7 -26 5 -13 -8 -4 31 10 40 14 9 34 -11 25 -26 -5 -8 10 -12 35 -9 7 2 10
-3 6 -9 -4 -6 -1 -9 7 -8 7 2 12 -3 10 -10 -2 -9 4 -9 21 3 13 8 27 12 30 9 4
-4 13 -1 21 5 10 9 16 9 21 1 5 -8 10 -8 20 0 10 8 16 7 24 -7 6 -10 11 -13
11 -6 0 6 10 9 23 7 20 -4 20 -4 2 5 -11 4 -23 7 -26 5 -13 -8 -4 31 10 40 14
9 34 -11 25 -26 -5 -8 10 -12 35 -9 7 2 10 -3 6 -9 -4 -6 -1 -9 7 -8 7 2 12
-3 10 -11 -3 -12 -1 -12 13 -1 9 7 33 14 53 14 20 1 42 5 49 9 7 4 16 0 22
-10 6 -10 11 -13 11 -6 0 6 10 9 23 7 20 -4 20 -4 2 5 -11 4 -23 7 -26 5 -13
-8 -4 31 10 40 14 9 34 -11 25 -26 -5 -8 10 -12 35 -9 7 2 10 -3 6 -9 -4 -6
-1 -9 7 -8 7 2 12 -3 10 -10 -2 -9 4 -9 21 3 13 8 27 12 30 9 4 -4 13 -1 21 5
10 9 16 9 21 1 5 -8 10 -8 20 0 10 8 16 7 24 -7 6 -10 11 -13 11 -6 0 6 10 9
23 7 20 -4 20 -4 2 5 -11 4 -23 7 -26 5 -13 -8 -4 31 10 40 14 9 34 -11 25
-26 -5 -8 10 -12 35 -9 7 2 10 -3 6 -9 -4 -6 -1 -9 7 -8 7 2 12 -3 10 -11 -3
-12 -1 -12 13 -1 9 7 33 14 53 14 20 1 42 5 49 9 7 4 16 0 22 -10 6 -10 11
-13 11 -6 0 6 10 9 23 7 20 -4 20 -4 2 5 -11 4 -23 7 -26 5 -13 -8 -4 31 10
40 14 9 34 -11 25 -26 -5 -8 10 -12 35 -9 7 2 10 -3 6 -9 -4 -6 -1 -9 7 -8 7
2 12 -3 10 -10 -2 -9 4 -9 21 3 13 8 27 12 30 9 4 -4 13 -1 21 5 10 9 16 9 21
1 5 -8 10 -8 20 0 10 8 16 7 24 -7 6 -10 11 -13 11 -6 0 6 10 9 23 7 20 -4 20
-4 2 5 -11 4 -23 7 -26 5 -13 -8 -4 31 10 40 14 9 34 -11 25 -26 -5 -8 10 -12
35 -9 7 2 10 -3 6 -9 -4 -6 -1 -9 7 -8 7 2 12 -3 10 -11 -3 -12 -1 -12 13 -1
9 7 33 14 53 14 20 1 42 5 49 9 7 4 16 0 22 -10 6 -10 11 -13 11 -6 0 6 10 9
23 7 20 -4 20 -4 2 5 -11 4 -23 7 -26 5 -13 -8 -4 31 10 40 14 9 34 -11 25
-26 -5 -8 10 -12 35 -9 7 2 10 -3 6 -9 -4 -6 -1 -9 7 -8 7 2 12 -3 10 -10 -2
-9 4 -9 21 3 13 8 27 12 30 9 4 -4 13 -1 21 5 10 9 16 9 21 1 5 -8 10 -8 20 0
10 8 16 7 24 -7 6 -10 11 -13 11 -6 0 6 10 9 22 7 21 -4 21 -4 3 5 -11 4 -23
7 -26 5 -13 -8 -4 31 10 40 14 9 34 -11 25 -26 -5 -8 10 -12 35 -9 7 2 10 -3
6 -9 -4 -6 -1 -9 7 -8 7 2 12 -3 10 -11 -3 -12 -1 -12 13 -1 9 7 33 14 53 14
20 1 42 5 49 9 7 4 16 0 22 -10 6 -10 11 -13 11 -6 0 6 10 9 23 7 20 -4 20 -4
2 5 -11 4 -23 7 -26 5 -13 -8 -4 31 10 40 14 9 34 -11 25 -26 -5 -8 10 -12 35
-9 7 2 10 -3 6 -9 -4 -6 -1 -9 7 -8 7 2 12 -3 10 -10 -2 -9 4 -9 21 3 13 8 27
12 30 9 4 -4 13 -1 21 5 10 9 16 9 21 1 5 -8 10 -8 20 0 10 8 16 7 24 -7 6
-10 11 -13 11 -6 0 6 10 9 23 7 20 -4 20 -4 2 5 -11 4 -23 7 -26 5 -13 -8 -4
31 10 40 14 9 34 -11 25 -26 -5 -8 10 -12 35 -9 7 2 10 -3 6 -9 -4 -6 -1 -9 7
-8 7 2 12 -3 10 -11 -3 -12 -1 -12 13 -1 9 7 33 14 53 14 20 1 42 5 49 9 7 4
16 0 22 -10 6 -10 11 -13 11 -6 0 6 10 9 23 7 20 -4 20 -4 2 5 -11 4 -23 7
-26 5 -13 -8 -4 31 10 40 14 9 34 -11 25 -26 -5 -8 10 -12 35 -9 7 2 10 -3 6
-9 -4 -6 -1 -9 7 -8 7 2 12 -3 10 -10 -2 -9 4 -9 21 3 13 8 27 12 30 9 4 -4
13 -1 21 5 10 9 16 9 21 1 5 -8 10 -8 20 0 10 8 16 7 24 -7 6 -10 11 -13 11
-6 0 6 10 9 23 7 20 -4 20 -4 2 5 -11 4 -23 7 -26 5 -13 -8 -4 31 10 40 14 9
34 -11 25 -26 -5 -8 10 -12 35 -9 7 2 10 -3 6 -9 -4 -6 -1 -9 7 -8 7 2 12 -3
10 -11 -3 -12 -1 -12 13 -1 9 7 33 14 53 14 20 1 42 5 49 9 7 4 16 0 22 -10 6
-10 11 -13 11 -6 0 6 10 9 23 7 20 -4 20 -4 2 5 -11 4 -23 7 -26 5 -13 -8 -4
31 10 40 14 9 34 -11 25 -26 -5 -8 10 -12 35 -9 7 2 10 -3 6 -9 -4 -6 -1 -9 7
-8 7 2 12 -3 10 -10 -2 -9 4 -9 21 3 13 8 27 12 30 9 4 -4 13 -1 21 5 10 9 16
9 21 1 5 -8 10 -8 20 0 10 8 16 7 24 -7 6 -10 11 -13 11 -6 0 6 10 9 23 7 20
-4 20 -4 2 5 -11 4 -23 7 -26 5 -13 -8 -4 31 10 40 14 9 34 -11 25 -26 -5 -8
10 -12 35 -9 7 2 10 -3 6 -9 -4 -6 -1 -9 7 -8 7 2 12 -3 10 -11 -3 -12 -1 -12
13 -1 9 7 33 14 53 14 20 1 42 5 49 9 7 4 16 0 22 -10 6 -10 11 -13 11 -6 0 6
10 9 23 7 20 -4 20 -4 2 5 -11 4 -23 7 -26 5 -13 -8 -4 31 10 40 14 9 34 -11
25 -26 -5 -8 10 -12 35 -9 7 2 10 -3 6 -9 -4 -6 -1 -9 7 -8 7 2 12 -3 10 -10
-2 -9 4 -9 21 3 13 8 27 12 30 9 4 -4 13 -1 21 5 10 9 16 9 21 1 5 -8 10 -8
20 0 10 8 16 7 24 -7 6 -10 11 -13 11 -6 0 6 10 9 23 7 20 -4 20 -4 2 5 -11 4
-23 7 -26 5 -13 -8 -4 31 10 40 14 9 34 -11 25 -26 -5 -8 10 -12 35 -9 7 2 10
-3 6 -9 -4 -6 -1 -9 7 -8 7 2 12 -3 10 -11 -3 -12 -1 -12 13 -1 9 7 33 14 53
14 20 1 42 5 49 9 7 4 16 0 22 -10 6 -10 11 -13 11 -6 0 6 10 9 23 7 20 -4 20
-4 2 5 -11 4 -23 7 -26 5 -13 -8 -4 31 10 40 14 9 34 -11 25 -26 -5 -8 10 -12
35 -9 7 2 10 -3 6 -9 -4 -6 -1 -9 7 -8 7 2 12 -3 10 -10 -2 -9 4 -9 21 3 13 8
27 12 30 9 4 -4 13 -1 21 5 9 7 17 8 20 2 6 -9 56 8 56 19 0 3 4 12 9 19 8 12
13 11 31 -10 15 -16 20 -19 16 -7 -3 10 -2 17 2 16 4 -1 15 2 25 7 10 4 24 2
33 -6 13 -11 15 -10 12 6 -1 10 3 20 11 23 10 3 11 -2 6 -18 -5 -15 -3 -20 3
-16 6 3 14 1 18 -5 4 -7 3 -9 -3 -6 -5 3 -10 0 -10 -8 0 -11 4 -12 14 -4 7 6
10 16 7 21 -8 12 28 6 39 -7 5 -6 7 -3 4 6 -9 28 14 41 37 21 16 -13 18 -13 8
-1 -6 9 -9 19 -5 23 10 10 12 36 3 36 -5 0 -12 -4 -15 -10 -3 -5 -1 -10 5 -10
6 0 8 -5 4 -11 -4 -8 -10 -6 -17 6 -10 19 8 38 30 30 7 -2 15 0 18 5 4 6 1 10
-4 10 -6 0 -11 7 -11 15 0 12 3 12 18 -2 10 -10 14 -21 9 -24 -5 -3 -9 -10 -9
-15 0 -5 -3 -8 -7 -7 -4 1 -7 -7 -7 -18 0 -18 2 -18 12 -5 6 9 14 12 18 8 4
-4 7 -2 6 3 -5 23 1 36 13 29 9 -6 9 -5 0 8 -7 8 -10 18 -6 21 3 4 11 -1 18
-10 10 -14 12 -13 10 8 -1 13 3 27 9 31 7 5 7 11 -3 20 -11 11 -13 11 -6 -1 6
-10 4 -12 -5 -6 -9 6 -11 4 -5 -5 6 -9 4 -11 -5 -5 -9 6 -11 4 -5 -5 6 -9 4
-11 -5 -5 -9 6 -11 4 -5 -5 6 -9 4 -11 -5 -5 -9 6 -11 4 -5 -6 7 -12 6 -12 -6
0 -10 10 -11 15 -2 18 7 2 9 12 6 21 -3 12 -2 13 4 4 7 -10 14 -8 29 9 19 22
19 22 -6 15 -23 -5 -23 -5 2 7 27 12 27 14 10 32 -17 19 -17 19 5 1 18 -15 20
-23 12 -37 -6 -13 -6 -19 1 -19 5 0 10 7 10 15 0 8 5 15 10 15 6 0 10 5 10 11
0 5 -4 7 -10 4 -20 -13 -9 14 12 29 12 9 18 16 12 16 -6 0 -11 7 -11 15 0 9 6
14 13 11 8 -3 16 -1 19 5 4 5 3 9 -2 8 -23 -4 -33 3 -33 24 0 17 -2 19 -9 7
-6 -8 -7 -19 -3 -25 16 -25 10 -35 -11 -20 -16 11 -24 12 -36 2 -14 -10 -14
-10 -3 5 8 9 11 22 8 27 -4 5 -2 13 4 16 6 4 10 3 9 -2 -3 -17 1 -33 9 -33 15
0 8 80 -8 90 -8 5 -11 10 -7 10 4 0 18 -7 31 -15 20 -13 25 -13 42 0 16 13 16
14 1 9 -13 -5 -16 -2 -11 10 3 9 1 16 -5 16 -6 0 -10 -4 -9 -9 3 -10 -10 -11
-29 -4 -10 4 -10 10 -2 26 9 16 8 23 -7 34 -10 7 -13 13 -8 13 6 0 15 -5 22
-12 9 -9 12 -9 12 0 0 7 -7 15 -15 18 -12 5 -12 10 -4 27 9 16 8 23 -7 34 -10
7 -13 13 -7 13 7 0 15 -5 18 -10 4 -6 10 -8 14 -6 4 3 8 -1 8 -9 0 -8 -4 -15
-9 -15 -4 0 -8 -8 -8 -17 1 -17 2 -17 13 -1 9 11 18 13 28 7 11 -5 16 -4 16 5
0 7 -5 13 -11 12 -6 0 -12 4 -12 9 -1 6 1 9 5 8 4 -1 8 5 8 13 0 9 -4 11 -10
5 -6 -6 -18 -6 -33 1 -19 9 -21 14 -12 31 8 16 7 23 -8 34 -10 7 -13 13 -7 13
18 0 32 -25 26 -48 -3 -15 -1 -22 8 -22 18 0 49 20 32 20 -7 0 -10 7 -7 18 5
14 4 15 -5 2 -9 -13 -11 -13 -11 2 0 9 4 20 10 23 13 8 13 25 0 25 -5 0 -9 -3
-7 -7 3 -12 -6 -15 -25 -8 -14 6 -16 11 -7 28 9 16 8 23 -7 34 -10 7 -13 13
-7 13 7 0 15 -5 18 -10 4 -6 10 -8 14 -6 4 3 8 -1 8 -9 0 -8 -4 -15 -9 -15 -4
0 -8 -8 -8 -17 1 -17 2 -17 13 -1 9 11 18 13 28 7 11 -5 16 -4 16 5 0 7 -5 13
-11 12 -6 0 -11 4 -11 9 0 6 3 9 6 8 3 -1 6 5 6 13 0 9 -4 11 -10 5 -6 -6 -18
-6 -33 1 -19 9 -21 14 -12 31 8 16 7 23 -8 34 -10 7 -13 13 -7 13 18 0 32 -25
26 -48 -3 -15 -1 -22 8 -22 18 0 49 20 32 20 -7 0 -10 7 -7 18 5 14 4 15 -5 2
-9 -13 -11 -13 -11 2 0 9 5 20 10 23 13 8 13 25 0 25 -5 0 -9 -3 -7 -8 3 -9
-13 -11 -30 -5 -10 4 -10 10 -2 26 9 16 8 23 -7 34 -10 7 -13 13 -7 13 7 0 15
-5 18 -10 4 -6 10 -8 14 -6 4 3 8 -1 8 -9 0 -8 -4 -15 -9 -15 -4 0 -8 -8 -8
-17 1 -17 2 -17 13 -1 9 11 18 13 28 7 11 -5 16 -4 16 5 0 7 -5 13 -11 12 -6
0 -11 3 -11 9 0 5 3 9 6 8 3 -1 6 5 6 13 0 9 -4 11 -10 5 -6 -6 -18 -6 -33 1
-19 9 -21 14 -12 31 8 16 7 23 -8 34 -10 7 -13 13 -7 13 18 0 32 -25 26 -48
-3 -15 -1 -22 8 -22 18 0 49 20 32 20 -7 0 -10 7 -7 18 5 14 4 15 -5 2 -9 -13
-11 -13 -11 2 0 9 5 20 10 23 13 8 13 25 0 25 -5 0 -9 -3 -7 -8 3 -11 -6 -14
-25 -7 -14 6 -16 11 -7 28 9 16 8 23 -7 34 -10 7 -13 13 -7 13 7 0 15 -5 18
-10 4 -6 10 -8 14 -6 4 3 8 -1 8 -9 0 -8 -4 -15 -9 -15 -4 0 -8 -8 -8 -17 1
-17 2 -17 13 -1 9 11 18 13 28 7 11 -5 16 -4 16 5 0 7 -5 13 -11 12 -6 0 -11
4 -11 9 0 6 3 9 6 8 3 -1 6 5 6 13 0 9 -4 11 -10 5 -6 -6 -18 -6 -33 1 -19 9
-21 14 -12 31 8 16 7 23 -8 34 -10 7 -13 13 -7 13 18 0 32 -25 26 -48 -3 -15
-1 -22 8 -22 18 0 49 20 32 20 -7 0 -10 7 -7 17 5 15 4 16 -5 3 -9 -13 -11
-13 -11 2 0 9 5 20 10 23 13 8 13 25 0 25 -5 0 -9 -3 -7 -8 3 -9 -13 -11 -30
-5 -10 4 -10 10 -2 26 9 16 8 23 -7 34 -10 7 -13 13 -7 13 7 0 15 -5 18 -10 4
-6 10 -8 14 -6 4 3 8 -1 8 -9 0 -8 -4 -15 -9 -15 -4 0 -8 -8 -8 -17 1 -17 2
-17 13 -1 9 11 18 13 28 7 11 -5 16 -4 16 5 0 7 -5 13 -11 12 -6 0 -11 3 -11
9 0 5 3 9 6 8 3 -1 6 5 6 13 0 9 -4 11 -10 5 -6 -6 -18 -6 -33 1 -19 9 -21 14
-12 31 8 16 7 23 -8 34 -10 7 -13 13 -7 13 18 0 32 -25 26 -48 -3 -15 -1 -22
8 -22 18 0 49 20 32 20 -7 0 -10 7 -7 17 5 15 4 16 -5 3 -9 -13 -11 -13 -11 2
0 9 4 20 10 23 13 8 13 25 0 25 -5 0 -9 -3 -7 -7 3 -12 -6 -15 -25 -8 -14 6
-16 11 -7 28 9 16 8 23 -7 34 -10 7 -13 13 -7 13 7 0 15 -5 18 -10 4 -6 10 -8
14 -6 4 3 8 -1 8 -9 0 -8 -4 -15 -9 -15 -4 0 -8 -8 -8 -17 1 -17 2 -17 13 -1
9 11 18 13 28 7 11 -5 16 -4 16 5 0 7 -5 13 -11 12 -6 0 -11 4 -11 9 0 6 3 9
6 8 3 -1 6 5 6 13 0 9 -4 11 -10 5 -6 -6 -18 -6 -33 1 -19 9 -21 14 -12 31 8
16 7 23 -8 34 -10 7 -13 13 -7 13 18 0 32 -25 26 -48 -3 -15 -1 -22 8 -22 18
0 49 20 32 20 -7 0 -10 7 -7 18 5 14 4 15 -5 2 -9 -13 -11 -13 -11 2 0 9 5 20
10 23 13 8 13 25 0 25 -5 0 -9 -3 -7 -8 3 -9 -13 -11 -30 -5 -10 4 -10 10 -2
26 9 16 8 23 -7 34 -10 7 -13 13 -7 13 7 0 15 -5 18 -10 4 -6 10 -8 14 -6 4 3
8 -1 8 -9 0 -8 -4 -15 -9 -15 -4 0 -8 -8 -8 -17 1 -17 2 -17 13 -1 9 11 18 13
28 7 11 -5 16 -4 16 5 0 7 -5 13 -11 12 -6 0 -11 4 -11 9 0 6 3 9 6 8 3 -1 6
5 6 13 0 9 -4 11 -10 5 -6 -6 -18 -6 -33 1 -19 9 -21 14 -12 31 8 16 7 23 -8
34 -10 7 -13 13 -7 13 18 0 32 -25 26 -48 -3 -15 -1 -22 8 -22 18 0 49 20 32
20 -7 0 -10 7 -7 18 5 14 4 15 -5 2 -9 -13 -11 -13 -11 2 0 9 5 20 10 23 13 8
13 25 0 25 -5 0 -9 -3 -7 -7 3 -10 -13 -12 -30 -6 -10 4 -10 10 -2 26 9 16 8
23 -7 34 -10 7 -13 13 -7 13 7 0 15 -5 18 -10 4 -6 10 -8 14 -6 4 3 8 -1 8 -9
0 -8 -4 -15 -9 -15 -4 0 -8 -8 -8 -17 1 -17 2 -17 13 -1 9 11 18 13 28 7 11
-5 16 -4 16 5 0 7 -5 13 -11 12 -6 0 -11 3 -11 9 0 5 3 9 6 8 3 -1 6 5 6 13 0
9 -4 11 -10 5 -6 -6 -18 -6 -33 1 -19 9 -21 14 -12 31 8 16 7 23 -8 34 -10 7
-13 13 -7 13 18 0 32 -25 26 -48 -3 -15 -1 -22 8 -22 18 0 49 20 32 20 -7 0
-10 7 -7 17 5 15 4 16 -5 3 -9 -13 -11 -13 -11 2 0 9 5 20 10 23 13 8 13 25 0
25 -5 0 -9 -3 -7 -8 3 -9 -13 -11 -30 -5 -10 4 -10 10 -2 26 9 16 8 23 -7 34
-10 7 -13 13 -7 13 7 0 15 -5 18 -10 4 -6 10 -8 14 -6 4 3 8 -1 8 -9 0 -8 -4
-15 -9 -15 -4 0 -8 -8 -8 -17 1 -17 2 -17 13 -1 9 11 18 13 28 7 11 -5 16 -4
16 5 0 7 -5 13 -11 12 -6 0 -11 3 -11 9 0 5 3 9 6 8 3 -1 6 5 6 13 0 9 -4 11
-10 5 -6 -6 -18 -6 -33 1 -19 9 -21 14 -12 31 8 16 7 23 -8 34 -10 7 -13 13
-7 13 18 0 32 -25 26 -48 -3 -15 -1 -22 8 -22 18 0 49 20 32 20 -7 0 -10 7 -7
18 5 14 4 15 -5 2 -9 -13 -11 -13 -11 2 0 9 5 20 10 23 13 8 13 25 0 25 -5 0
-9 -3 -7 -7 3 -10 -13 -12 -30 -6 -10 4 -10 10 -2 26 9 16 8 23 -7 34 -10 7
-13 13 -7 13 7 0 15 -5 18 -10 4 -6 10 -8 14 -6 4 3 8 -1 8 -9 0 -8 -4 -15 -9
-15 -4 0 -8 -8 -8 -17 1 -17 2 -17 13 -1 9 11 18 13 28 7 11 -5 16 -4 16 5 0
7 -5 13 -11 12 -6 0 -11 3 -11 9 0 5 3 9 6 8 3 -1 6 5 6 13 0 9 -4 11 -10 5
-6 -6 -18 -6 -33 1 -19 9 -21 14 -12 31 8 16 7 23 -8 34 -10 7 -13 13 -7 13
18 0 32 -25 26 -48 -3 -15 -1 -22 8 -22 18 0 49 20 32 20 -7 0 -10 7 -7 18 5
14 4 15 -5 2 -9 -13 -11 -13 -11 2 0 9 5 20 10 23 13 8 13 25 0 25 -5 0 -9 -3
-7 -7 3 -12 -6 -15 -25 -8 -14 6 -16 11 -7 28 9 16 8 23 -7 34 -10 7 -13 13
-7 13 7 0 15 -5 18 -10 4 -6 10 -8 14 -6 4 3 8 -1 8 -9 0 -8 -4 -15 -9 -15 -4
0 -8 -8 -8 -17 1 -17 2 -17 13 -1 9 11 18 13 28 7 11 -5 16 -4 16 5 0 7 -5 13
-11 12 -6 0 -11 4 -11 9 0 6 3 9 6 8 3 -1 6 5 6 13 0 9 -4 11 -10 5 -6 -6 -18
-6 -33 1 -19 9 -21 14 -12 31 8 16 7 23 -8 34 -10 7 -13 13 -7 13 18 0 32 -25
26 -48 -3 -15 -1 -22 8 -22 18 0 49 20 32 20 -7 0 -10 7 -7 18 5 14 4 15 -5 2
-9 -13 -11 -13 -11 2 0 9 4 20 10 23 13 8 13 25 0 25 -5 0 -9 -3 -7 -7 3 -10
-13 -12 -30 -6 -10 4 -10 10 -2 26 9 16 8 23 -7 34 -10 7 -13 13 -7 13 7 0 15
-5 18 -10 4 -6 10 -8 14 -6 4 3 8 -1 8 -9 0 -8 -4 -15 -9 -15 -4 0 -8 -8 -8
-17 1 -17 2 -17 13 -1 9 11 18 13 28 7 11 -5 16 -4 16 5 0 7 -5 13 -11 12 -6
0 -11 3 -11 9 0 5 3 9 6 8 3 -1 6 5 6 13 0 9 -4 11 -10 5 -6 -6 -18 -6 -33 1
-19 9 -21 14 -12 31 8 16 7 23 -8 34 -10 7 -13 13 -7 13 18 0 32 -25 26 -48
-3 -15 -1 -22 8 -22 18 0 49 20 32 20 -7 0 -10 7 -7 18 5 14 4 15 -5 2 -9 -13
-11 -13 -11 2 0 9 5 20 10 23 13 8 13 25 0 25 -5 0 -9 -3 -7 -7 3 -12 -6 -15
-25 -8 -14 6 -16 11 -7 28 9 16 8 23 -7 34 -10 7 -13 13 -7 13 7 0 15 -5 18
-10 4 -6 10 -8 14 -6 4 3 8 -1 8 -9 0 -8 -4 -15 -9 -15 -4 0 -8 -8 -8 -17 1
-17 2 -17 13 -1 9 11 18 13 28 7 11 -5 16 -4 16 5 0 7 -5 13 -11 12 -6 0 -11
4 -11 9 0 6 3 9 6 8 3 -1 6 5 6 13 0 9 -4 11 -10 5 -6 -6 -18 -6 -33 1 -19 9
-21 14 -12 31 8 16 7 23 -8 34 -10 7 -13 13 -7 13 18 0 32 -25 26 -48 -3 -15
-1 -22 8 -22 18 0 49 20 32 20 -7 0 -10 7 -7 18 5 14 4 15 -5 2 -9 -13 -11
-13 -11 2 0 9 5 20 10 23 13 8 13 25 0 25 -5 0 -9 -3 -7 -7 3 -12 -6 -15 -25
-8 -14 6 -16 11 -7 28 9 16 8 23 -7 34 -10 7 -13 13 -7 13 7 0 15 -5 18 -10 4
-6 10 -8 14 -6 4 3 8 -1 8 -9 0 -8 -4 -15 -9 -15 -4 0 -8 -8 -8 -17 1 -17 2
-17 13 -1 9 11 18 13 28 7 11 -5 16 -4 16 5 0 7 -5 13 -11 12 -6 0 -11 3 -11
9 0 5 3 9 6 8 3 -1 6 5 6 13 0 9 -4 11 -10 5 -6 -6 -18 -6 -33 1 -19 9 -21 14
-12 31 8 16 7 23 -8 34 -10 7 -13 13 -7 13 18 0 32 -25 26 -48 -3 -15 -1 -22
8 -22 18 0 49 20 32 20 -7 0 -10 7 -7 18 5 14 4 15 -5 2 -9 -13 -11 -13 -11 2
0 9 5 20 10 23 13 8 13 25 0 25 -5 0 -9 -3 -7 -7 3 -12 -6 -15 -25 -8 -14 6
-16 11 -7 28 9 16 8 23 -7 34 -10 7 -13 13 -7 13 7 0 15 -5 18 -10 4 -6 10 -8
14 -6 4 3 8 -1 8 -9 0 -8 -4 -15 -9 -15 -4 0 -8 -8 -8 -17 1 -17 2 -17 13 -1
9 11 18 13 28 7 11 -5 16 -4 16 5 0 7 -5 13 -11 12 -6 0 -11 3 -11 9 0 5 3 9
6 8 3 -1 6 5 6 13 0 9 -4 11 -10 5 -6 -6 -18 -6 -33 1 -19 9 -21 14 -12 31 8
16 7 23 -8 34 -10 7 -13 13 -7 13 18 0 32 -25 26 -48 -3 -15 -1 -22 8 -22 18
0 49 20 32 20 -7 0 -10 7 -7 18 5 14 4 15 -5 2 -9 -13 -11 -13 -11 2 0 9 5 20
10 23 13 8 13 25 0 25 -5 0 -9 -3 -7 -7 3 -12 -6 -15 -25 -8 -14 6 -16 11 -7
28 9 16 8 23 -7 34 -10 7 -13 13 -7 13 7 0 15 -5 18 -10 4 -6 10 -8 14 -6 4 3
8 -1 8 -9 0 -8 -4 -15 -9 -15 -4 0 -8 -8 -8 -17 1 -17 2 -17 13 -1 9 11 18 13
28 7 11 -5 16 -4 16 5 0 7 -5 13 -11 12 -6 0 -11 4 -11 9 0 6 3 9 6 8 3 -1 6
5 6 13 0 9 -4 11 -10 5 -6 -6 -18 -6 -33 1 -19 9 -21 14 -12 31 8 16 7 23 -8
34 -10 7 -13 13 -7 13 18 0 32 -25 26 -48 -3 -15 -1 -22 8 -22 18 0 49 20 32
20 -7 0 -10 7 -7 18 5 14 4 15 -5 2 -9 -13 -11 -13 -11 2 0 9 4 20 10 23 13 8
13 25 0 25 -5 0 -9 -3 -7 -7 3 -12 -6 -15 -25 -8 -14 6 -16 11 -7 28 9 16 8
23 -7 34 -10 7 -13 13 -7 13 7 0 15 -5 18 -10 4 -6 10 -8 14 -6 4 3 8 -1 8 -9
0 -8 -4 -15 -9 -15 -4 0 -8 -8 -8 -17 1 -17 2 -17 13 -1 9 11 18 13 28 7 11
-5 16 -4 16 5 0 7 -5 13 -11 12 -6 0 -11 3 -11 9 0 5 3 9 6 8 3 -1 6 5 6 13 0
9 -4 11 -10 5 -6 -6 -18 -6 -33 1 -19 9 -21 14 -12 31 8 16 7 23 -8 34 -10 7
-13 13 -7 13 18 0 32 -25 26 -48 -3 -15 -1 -22 8 -22 18 0 49 20 32 20 -7 0
-10 7 -7 18 5 14 4 15 -5 2 -9 -13 -11 -13 -11 2 0 9 5 20 10 23 13 8 13 25 0
25 -5 0 -9 -3 -7 -7 3 -10 -13 -12 -30 -6 -10 4 -10 10 -2 26 9 16 8 23 -7 34
-10 7 -13 13 -7 13 7 0 15 -5 18 -10 4 -6 10 -8 14 -6 4 3 8 -1 8 -9 0 -8 -4
-15 -9 -15 -4 0 -8 -8 -8 -17 1 -17 2 -17 13 -1 9 11 18 13 28 7 11 -5 16 -4
16 5 0 7 -5 13 -11 12 -6 0 -11 4 -11 9 0 6 3 9 6 8 3 -1 6 5 6 13 0 9 -4 11
-10 5 -6 -6 -18 -6 -33 1 -19 9 -21 14 -12 31 8 16 7 23 -8 34 -10 7 -13 13
-7 13 18 0 32 -25 26 -48 -3 -15 -1 -22 8 -22 18 0 49 20 32 20 -7 0 -10 7 -7
18 5 14 4 15 -5 2 -9 -13 -11 -13 -11 2 0 9 5 20 10 23 13 8 13 25 0 25 -5 0
-9 -3 -7 -7 3 -12 -6 -15 -25 -8 -14 6 -16 11 -7 28 9 16 8 23 -7 34 -10 7
-13 13 -7 13 7 0 15 -5 18 -10 4 -6 10 -8 14 -6 4 3 8 -1 8 -9 0 -8 -4 -15 -9
-15 -4 0 -8 -8 -8 -17 1 -17 2 -17 13 -1 9 11 18 13 28 7 11 -5 16 -4 16 5 0
7 -5 13 -11 12 -6 0 -11 4 -11 9 0 6 3 9 6 8 3 -1 6 5 6 13 0 9 -4 11 -10 5
-6 -6 -18 -6 -33 1 -19 9 -21 14 -12 31 8 16 7 23 -8 34 -10 7 -13 13 -7 13
18 0 32 -25 26 -48 -3 -15 -1 -22 8 -22 18 0 49 20 32 20 -7 0 -10 7 -7 18 5
14 4 15 -5 2 -9 -13 -11 -13 -11 2 0 9 5 20 10 23 13 8 13 25 0 25 -5 0 -9 -4
-7 -9 2 -11 -7 -13 -28 -5 -12 5 -12 10 -4 27 9 16 8 23 -7 34 -10 7 -13 13
-7 13 7 0 15 -5 18 -10 4 -6 10 -8 14 -6 4 3 8 -1 8 -9 0 -8 -4 -15 -9 -15 -4
0 -8 -8 -8 -17 1 -17 2 -17 13 -1 9 11 18 13 28 7 11 -5 16 -4 16 5 0 7 -5 13
-11 12 -6 0 -11 3 -11 9 0 5 3 9 6 8 3 -1 6 5 6 13 0 9 -4 11 -10 5 -6 -6 -18
-6 -33 1 -19 9 -21 14 -12 31 8 16 7 23 -8 34 -10 7 -13 13 -7 13 18 0 32 -25
26 -48 -3 -15 -1 -22 8 -22 18 0 49 20 32 20 -7 0 -10 7 -7 18 5 14 4 15 -5 2
-9 -13 -11 -13 -11 2 0 9 5 20 10 23 13 8 13 25 0 25 -5 0 -9 -4 -7 -9 2 -11
-7 -13 -28 -5 -12 5 -12 10 -4 27 9 16 8 23 -7 34 -10 7 -13 13 -7 13 7 0 15
-5 18 -10 4 -6 10 -8 14 -6 4 3 8 -1 8 -9 0 -8 -4 -15 -9 -15 -4 0 -8 -8 -8
-17 1 -17 2 -17 13 -1 9 11 18 13 28 7 11 -5 16 -4 16 5 0 7 -5 13 -11 12 -6
0 -11 3 -11 9 0 5 3 9 6 8 3 -1 6 5 6 13 0 9 -4 11 -10 5 -6 -6 -18 -6 -33 1
-19 9 -21 14 -12 31 8 16 7 23 -8 34 -10 7 -13 13 -7 13 18 0 32 -25 26 -48
-3 -15 -1 -22 8 -22 18 0 49 20 32 20 -7 0 -10 7 -7 18 5 14 4 15 -5 2 -9 -13
-11 -13 -11 2 0 9 5 20 10 23 13 8 13 25 0 25 -5 0 -9 -4 -7 -9 2 -11 -7 -13
-28 -5 -12 5 -12 10 -4 27 9 16 8 23 -7 34 -10 7 -13 13 -7 13 7 0 15 -5 18
-10 4 -6 10 -8 14 -6 4 3 8 -1 8 -9 0 -8 -4 -15 -9 -15 -4 0 -8 -8 -8 -17 1
-17 2 -17 13 -1 9 11 18 13 28 7 11 -5 16 -4 16 5 0 7 -5 13 -11 12 -6 0 -11
3 -11 9 0 5 3 9 6 8 3 -1 6 5 6 13 0 9 -4 11 -10 5 -6 -6 -18 -6 -33 1 -19 9
-21 14 -12 31 8 16 7 23 -8 34 -10 7 -13 13 -7 13 18 0 32 -25 26 -48 -3 -15
-1 -22 8 -22 18 0 49 20 32 20 -7 0 -10 7 -7 18 5 14 4 15 -5 2 -9 -13 -11
-13 -11 2 0 9 5 20 10 23 13 8 13 25 0 25 -5 0 -9 -4 -7 -9 2 -11 -7 -13 -28
-5 -12 5 -12 10 -4 27 9 16 8 23 -7 34 -10 7 -13 13 -7 13 7 0 15 -5 18 -10 4
-6 10 -8 14 -6 4 3 8 -1 8 -9 0 -8 -4 -15 -9 -15 -4 0 -8 -8 -8 -17 1 -17 2
-17 13 -1 9 11 18 13 28 7 11 -5 16 -4 16 5 0 7 -5 13 -11 12 -6 0 -11 3 -11
9 0 5 3 9 6 8 3 -1 6 5 6 13 0 9 -4 11 -10 5 -6 -6 -18 -6 -33 1 -19 9 -21 14
-12 31 8 16 7 23 -8 34 -10 7 -13 13 -7 13 18 0 32 -25 26 -48 -3 -15 -1 -22
8 -22 18 0 49 20 32 20 -7 0 -10 7 -7 18 5 14 4 15 -5 2 -9 -13 -11 -13 -11 2
0 9 5 20 10 23 13 8 13 25 0 25 -5 0 -9 -4 -7 -9 2 -11 -7 -13 -28 -5 -12 5
-12 10 -4 27 9 16 8 23 -7 34 -10 7 -13 13 -7 13 7 0 15 -5 18 -10 4 -6 10 -8
14 -6 4 3 8 -1 8 -9 0 -8 -4 -15 -9 -15 -4 0 -8 -8 -8 -17 1 -17 2 -17 13 -1
9 11 18 13 28 7 11 -5 16 -4 16 5 0 7 -5 13 -11 12 -6 0 -11 4 -11 9 0 6 3 9
6 8 3 -1 6 5 6 13 0 9 -4 11 -10 5 -6 -6 -18 -6 -33 1 -19 9 -21 14 -12 31 8
16 7 23 -8 34 -10 7 -13 13 -7 13 18 0 32 -25 26 -48 -3 -15 -1 -22 8 -22 18
0 49 20 32 20 -7 0 -10 7 -7 18 5 14 4 15 -5 2 -9 -13 -11 -13 -11 2 0 9 5 20
10 23 13 8 13 25 0 25 -5 0 -9 -3 -7 -7 3 -10 -13 -12 -30 -6 -10 4 -10 10 -2
26 9 16 8 23 -7 34 -10 7 -13 13 -7 13 7 0 15 -5 18 -10 4 -6 10 -8 14 -6 4 3
8 -1 8 -9 0 -8 -4 -15 -9 -15 -4 0 -8 -8 -8 -17 1 -17 2 -17 13 -1 9 11 18 13
28 7 11 -5 16 -4 16 5 0 7 -5 13 -11 12 -6 0 -11 4 -11 9 0 6 3 9 6 8 3 -1 6
5 6 13 0 9 -4 11 -10 5 -6 -6 -18 -6 -33 1 -19 9 -21 14 -12 31 8 16 7 23 -8
34 -10 7 -13 13 -7 13 18 0 32 -25 26 -48 -3 -15 -1 -22 8 -22 18 0 49 20 32
20 -7 0 -10 7 -7 18 5 14 4 15 -5 2 -9 -13 -11 -13 -11 2 0 9 5 20 10 23 14 9
12 28 -2 22 -7 -2 -12 -11 -10 -18 1 -9 -3 -8 -11 3 -8 10 -18 14 -22 10 -4
-4 -3 2 2 13 15 30 9 115 -8 126 -9 5 -10 9 -2 9 6 0 15 -5 18 -10 4 -6 11 -7
17 -4 7 5 8 2 3 -7 -7 -11 -6 -12 7 -2 8 7 18 10 21 6 4 -3 7 -1 7 6 0 7 -6
11 -14 8 -7 -3 -23 1 -35 9 -12 8 -26 12 -33 8 -7 -5 -8 -3 -4 5 5 7 14 10 22
7 8 -3 14 -1 14 4 0 6 -3 10 -8 10 -4 0 -13 10 -21 23 -13 21 -13 21 4 7 17
-14 18 -13 12 3 -4 10 -7 21 -7 23 0 3 -4 3 -9 -1 -6 -3 -8 11 -5 32 3 28 1
34 -6 23 -5 -8 -10 -11 -10 -6 0 5 8 18 18 29 16 19 16 20 -5 8 -21 -11 -27
-8 -24 12 0 4 -4 7 -9 7 -6 0 -10 5 -10 11 0 5 5 7 11 3 7 -4 10 -1 7 7 -3 8
-10 13 -16 12 -6 -2 -17 7 -23 20 -19 35 -69 75 -139 110 l-65 32 -2215 2
c-1734 1 -2225 -1 -2261 -11z m4761 -416 c0 -5 -2 -10 -4 -10 -3 0 -8 5 -11
10 -3 6 -1 10 4 10 6 0 11 -4 11 -10z m0 -40 c0 -5 -2 -10 -4 -10 -3 0 -8 5
-11 10 -3 6 -1 10 4 10 6 0 11 -4 11 -10z m0 -40 c0 -5 -2 -10 -4 -10 -3 0 -8
5 -11 10 -3 6 -1 10 4 10 6 0 11 -4 11 -10z m0 -80 c0 -5 -2 -10 -4 -10 -3 0
-8 5 -11 10 -3 6 -1 10 4 10 6 0 11 -4 11 -10z m45 -20 c3 -5 1 -10 -4 -10 -6
0 -11 5 -11 10 0 6 2 10 4 10 3 0 8 -4 11 -10z m-45 -60 c0 -5 -2 -10 -4 -10
-3 0 -8 5 -11 10 -3 6 -1 10 4 10 6 0 11 -4 11 -10z m0 -80 c0 -5 -2 -10 -4
-10 -3 0 -8 5 -11 10 -3 6 -1 10 4 10 6 0 11 -4 11 -10z m45 -20 c3 -5 1 -10
-4 -10 -6 0 -11 5 -11 10 0 6 2 10 4 10 3 0 8 -4 11 -10z m-45 -60 c0 -5 -2
-10 -4 -10 -3 0 -8 5 -11 10 -3 6 -1 10 4 10 6 0 11 -4 11 -10z m0 -80 c0 -5
-2 -10 -4 -10 -3 0 -8 5 -11 10 -3 6 -1 10 4 10 6 0 11 -4 11 -10z m45 -20 c3
-5 1 -10 -4 -10 -6 0 -11 5 -11 10 0 6 2 10 4 10 3 0 8 -4 11 -10z m-45 -60
c0 -5 -2 -10 -4 -10 -3 0 -8 5 -11 10 -3 6 -1 10 4 10 6 0 11 -4 11 -10z m0
-80 c0 -5 -2 -10 -4 -10 -3 0 -8 5 -11 10 -3 6 -1 10 4 10 6 0 11 -4 11 -10z
m45 -20 c3 -5 1 -10 -4 -10 -6 0 -11 5 -11 10 0 6 2 10 4 10 3 0 8 -4 11 -10z
m-45 -60 c0 -5 -2 -10 -4 -10 -3 0 -8 5 -11 10 -3 6 -1 10 4 10 6 0 11 -4 11
-10z m0 -80 c0 -5 -2 -10 -4 -10 -3 0 -8 5 -11 10 -3 6 -1 10 4 10 6 0 11 -4
11 -10z m45 -20 c3 -5 1 -10 -4 -10 -6 0 -11 5 -11 10 0 6 2 10 4 10 3 0 8 -4
11 -10z m-45 -60 c0 -5 -2 -10 -4 -10 -3 0 -8 5 -11 10 -3 6 -1 10 4 10 6 0
11 -4 11 -10z m0 -80 c0 -5 -2 -10 -4 -10 -3 0 -8 5 -11 10 -3 6 -1 10 4 10 6
0 11 -4 11 -10z m45 -20 c3 -5 1 -10 -4 -10 -6 0 -11 5 -11 10 0 6 2 10 4 10
3 0 8 -4 11 -10z m-45 -60 c0 -5 -2 -10 -4 -10 -3 0 -8 5 -11 10 -3 6 -1 10 4
10 6 0 11 -4 11 -10z m0 -80 c0 -5 -2 -10 -4 -10 -3 0 -8 5 -11 10 -3 6 -1 10
4 10 6 0 11 -4 11 -10z m45 -20 c3 -5 1 -10 -4 -10 -6 0 -11 5 -11 10 0 6 2
10 4 10 3 0 8 -4 11 -10z m-45 -60 c0 -5 -2 -10 -4 -10 -3 0 -8 5 -11 10 -3 6
-1 10 4 10 6 0 11 -4 11 -10z m0 -80 c0 -5 -2 -10 -4 -10 -3 0 -8 5 -11 10 -3
6 -1 10 4 10 6 0 11 -4 11 -10z m45 -20 c3 -5 1 -10 -4 -10 -6 0 -11 5 -11 10
0 6 2 10 4 10 3 0 8 -4 11 -10z m-45 -60 c0 -5 -2 -10 -4 -10 -3 0 -8 5 -11
10 -3 6 -1 10 4 10 6 0 11 -4 11 -10z m0 -80 c0 -5 -2 -10 -4 -10 -3 0 -8 5
-11 10 -3 6 -1 10 4 10 6 0 11 -4 11 -10z m45 -20 c3 -5 1 -10 -4 -10 -6 0
-11 5 -11 10 0 6 2 10 4 10 3 0 8 -4 11 -10z m-45 -60 c0 -5 -2 -10 -4 -10 -3
0 -8 5 -11 10 -3 6 -1 10 4 10 6 0 11 -4 11 -10z m0 -80 c0 -5 -2 -10 -4 -10
-3 0 -8 5 -11 10 -3 6 -1 10 4 10 6 0 11 -4 11 -10z m45 -20 c3 -5 1 -10 -4
-10 -6 0 -11 5 -11 10 0 6 2 10 4 10 3 0 8 -4 11 -10z m-45 -60 c0 -5 -2 -10
-4 -10 -3 0 -8 5 -11 10 -3 6 -1 10 4 10 6 0 11 -4 11 -10z m0 -80 c0 -5 -2
-10 -4 -10 -3 0 -8 5 -11 10 -3 6 -1 10 4 10 6 0 11 -4 11 -10z m45 -20 c3 -5
1 -10 -4 -10 -6 0 -11 5 -11 10 0 6 2 10 4 10 3 0 8 -4 11 -10z m-45 -60 c0
-5 -2 -10 -4 -10 -3 0 -8 5 -11 10 -3 6 -1 10 4 10 6 0 11 -4 11 -10z m0 -80
c0 -5 -2 -10 -4 -10 -3 0 -8 5 -11 10 -3 6 -1 10 4 10 6 0 11 -4 11 -10z m45
-20 c3 -5 1 -10 -4 -10 -6 0 -11 5 -11 10 0 6 2 10 4 10 3 0 8 -4 11 -10z
m-45 -60 c0 -5 -2 -10 -4 -10 -3 0 -8 5 -11 10 -3 6 -1 10 4 10 6 0 11 -4 11
-10z m0 -80 c0 -5 -2 -10 -4 -10 -3 0 -8 5 -11 10 -3 6 -1 10 4 10 6 0 11 -4
11 -10z m45 -20 c3 -5 1 -10 -4 -10 -6 0 -11 5 -11 10 0 6 2 10 4 10 3 0 8 -4
11 -10z m-45 -60 c0 -5 -2 -10 -4 -10 -3 0 -8 5 -11 10 -3 6 -1 10 4 10 6 0
11 -4 11 -10z m0 -80 c0 -5 -2 -10 -4 -10 -3 0 -8 5 -11 10 -3 6 -1 10 4 10 6
0 11 -4 11 -10z m45 -20 c3 -5 1 -10 -4 -10 -6 0 -11 5 -11 10 0 6 2 10 4 10
3 0 8 -4 11 -10z m-45 -60 c0 -5 -2 -10 -4 -10 -3 0 -8 5 -11 10 -3 6 -1 10 4
10 6 0 11 -4 11 -10z m0 -80 c0 -5 -2 -10 -4 -10 -3 0 -8 5 -11 10 -3 6 -1 10
4 10 6 0 11 -4 11 -10z m45 -20 c3 -5 1 -10 -4 -10 -6 0 -11 5 -11 10 0 6 2
10 4 10 3 0 8 -4 11 -10z m-45 -60 c0 -5 -2 -10 -4 -10 -3 0 -8 5 -11 10 -3 6
-1 10 4 10 6 0 11 -4 11 -10z m0 -80 c0 -5 -2 -10 -4 -10 -3 0 -8 5 -11 10 -3
6 -1 10 4 10 6 0 11 -4 11 -10z m45 -20 c3 -5 1 -10 -4 -10 -6 0 -11 5 -11 10
0 6 2 10 4 10 3 0 8 -4 11 -10z m-45 -60 c0 -5 -2 -10 -4 -10 -3 0 -8 5 -11
10 -3 6 -1 10 4 10 6 0 11 -4 11 -10z m0 -80 c0 -5 -2 -10 -4 -10 -3 0 -8 5
-11 10 -3 6 -1 10 4 10 6 0 11 -4 11 -10z m45 -20 c3 -5 1 -10 -4 -10 -6 0
-11 5 -11 10 0 6 2 10 4 10 3 0 8 -4 11 -10z m-45 -60 c0 -5 -2 -10 -4 -10 -3
0 -8 5 -11 10 -3 6 -1 10 4 10 6 0 11 -4 11 -10z m0 -80 c0 -5 -2 -10 -4 -10
-3 0 -8 5 -11 10 -3 6 -1 10 4 10 6 0 11 -4 11 -10z m45 -20 c3 -5 1 -10 -4
-10 -6 0 -11 5 -11 10 0 6 2 10 4 10 3 0 8 -4 11 -10z m-45 -60 c0 -5 -2 -10
-4 -10 -3 0 -8 5 -11 10 -3 6 -1 10 4 10 6 0 11 -4 11 -10z m0 -80 c0 -5 -2
-10 -4 -10 -3 0 -8 5 -11 10 -3 6 -1 10 4 10 6 0 11 -4 11 -10z m45 -20 c3 -5
1 -10 -4 -10 -6 0 -11 5 -11 10 0 6 2 10 4 10 3 0 8 -4 11 -10z m-45 -60 c0
-5 -2 -10 -4 -10 -3 0 -8 5 -11 10 -3 6 -1 10 4 10 6 0 11 -4 11 -10z m0 -80
c0 -5 -2 -10 -4 -10 -3 0 -8 5 -11 10 -3 6 -1 10 4 10 6 0 11 -4 11 -10z m45
-20 c3 -5 1 -10 -4 -10 -6 0 -11 5 -11 10 0 6 2 10 4 10 3 0 8 -4 11 -10z
m-45 -60 c0 -5 -2 -10 -4 -10 -3 0 -8 5 -11 10 -3 6 -1 10 4 10 6 0 11 -4 11
-10z m0 -80 c0 -5 -2 -10 -4 -10 -3 0 -8 5 -11 10 -3 6 -1 10 4 10 6 0 11 -4
11 -10z m45 -20 c3 -5 1 -10 -4 -10 -6 0 -11 5 -11 10 0 6 2 10 4 10 3 0 8 -4
11 -10z m-45 -60 c0 -5 -2 -10 -4 -10 -3 0 -8 5 -11 10 -3 6 -1 10 4 10 6 0
11 -4 11 -10z m0 -80 c0 -5 -2 -10 -4 -10 -3 0 -8 5 -11 10 -3 6 -1 10 4 10 6
0 11 -4 11 -10z m45 -20 c3 -5 1 -10 -4 -10 -6 0 -11 5 -11 10 0 6 2 10 4 10
3 0 8 -4 11 -10z m-45 -60 c0 -5 -2 -10 -4 -10 -3 0 -8 5 -11 10 -3 6 -1 10 4
10 6 0 11 -4 11 -10z m0 -80 c0 -5 -2 -10 -4 -10 -3 0 -8 5 -11 10 -3 6 -1 10
4 10 6 0 11 -4 11 -10z m45 -20 c3 -5 1 -10 -4 -10 -6 0 -11 5 -11 10 0 6 2
10 4 10 3 0 8 -4 11 -10z m-45 -60 c0 -5 -2 -10 -4 -10 -3 0 -8 5 -11 10 -3 6
-1 10 4 10 6 0 11 -4 11 -10z m0 -80 c0 -5 -2 -10 -4 -10 -3 0 -8 5 -11 10 -3
6 -1 10 4 10 6 0 11 -4 11 -10z m45 -20 c3 -5 1 -10 -4 -10 -6 0 -11 5 -11 10
0 6 2 10 4 10 3 0 8 -4 11 -10z m-45 -60 c0 -5 -2 -10 -4 -10 -3 0 -8 5 -11
10 -3 6 -1 10 4 10 6 0 11 -4 11 -10z m0 -80 c0 -5 -2 -10 -4 -10 -3 0 -8 5
-11 10 -3 6 -1 10 4 10 6 0 11 -4 11 -10z m45 -20 c3 -5 1 -10 -4 -10 -6 0
-11 5 -11 10 0 6 2 10 4 10 3 0 8 -4 11 -10z m-45 -60 c0 -5 -2 -10 -4 -10 -3
0 -8 5 -11 10 -3 6 -1 10 4 10 6 0 11 -4 11 -10z m0 -80 c0 -5 -2 -10 -4 -10
-3 0 -8 5 -11 10 -3 6 -1 10 4 10 6 0 11 -4 11 -10z m0 -80 c0 -5 -2 -10 -4
-10 -3 0 -8 5 -11 10 -3 6 -1 10 4 10 6 0 11 -4 11 -10z m23 -104 c15 -11 15
-15 3 -25 -15 -13 -32 1 -22 18 4 5 0 12 -6 14 -7 3 -8 6 -3 6 6 0 18 -6 28
-13z m-48 -56 c-3 -5 -14 -10 -23 -9 -14 0 -13 2 3 9 27 11 27 11 20 0z m-40
-49 c3 -5 2 -12 -3 -15 -5 -3 -9 1 -9 9 0 17 3 19 12 6z m-31 -47 c3 -8 2 -12
-4 -9 -6 3 -10 10 -10 16 0 14 7 11 14 -7z m-27 -9 c0 -8 -4 -12 -9 -9 -5 3
-6 10 -3 15 9 13 12 11 12 -6z m-57 -43 c-6 -2 -7 -9 -4 -14 4 -6 2 -8 -4 -5
-5 4 -8 16 -5 28 4 16 8 17 14 7 5 -7 4 -14 -1 -16z m45 -32 c-10 -11 -24 -16
-36 -13 -16 5 -17 8 -7 14 7 5 14 4 16 -1 2 -6 8 -7 13 -4 6 3 5 12 -3 22 -10
12 -10 14 0 8 13 -8 16 4 5 20 -5 5 0 1 10 -10 16 -17 16 -20 2 -36z m-4490 1
c-9 -16 34 -34 49 -22 10 8 16 5 24 -13 9 -20 8 -24 -6 -21 -9 2 -19 4 -22 5
-3 1 -8 2 -12 1 -5 0 -8 4 -8 10 0 6 -7 8 -16 5 -8 -3 -13 -2 -9 3 3 5 0 11
-7 13 -10 4 -4 28 8 28 3 0 3 -4 -1 -9z m45 -1 c0 -5 -5 -10 -11 -10 -5 0 -7
5 -4 10 3 6 8 10 11 10 2 0 4 -4 4 -10z m38 -15 c-3 -3 -9 2 -12 12 -6 14 -5
15 5 6 7 -7 10 -15 7 -18z m29 3 c-3 -8 -6 -5 -6 6 -1 11 2 17 5 13 3 -3 4
-12 1 -19z m74 4 c-7 -2 -18 1 -23 6 -8 8 -4 9 13 5 13 -4 18 -8 10 -11z m137
-7 c-3 -3 -9 2 -12 12 -6 14 -5 15 5 6 7 -7 10 -15 7 -18z m29 3 c-3 -8 -6 -5
-6 6 -1 11 2 17 5 13 3 -3 4 -12 1 -19z m74 4 c-7 -2 -18 1 -23 6 -8 8 -4 9
13 5 13 -4 18 -8 10 -11z m137 -7 c-3 -3 -9 2 -12 12 -6 14 -5 15 5 6 7 -7 10
-15 7 -18z m29 3 c-3 -8 -6 -5 -6 6 -1 11 2 17 5 13 3 -3 4 -12 1 -19z m74 4
c-7 -2 -18 1 -23 6 -8 8 -4 9 13 5 13 -4 18 -8 10 -11z m137 -7 c-3 -3 -9 2
-12 12 -6 14 -5 15 5 6 7 -7 10 -15 7 -18z m29 3 c-3 -8 -6 -5 -6 6 -1 11 2
17 5 13 3 -3 4 -12 1 -19z m74 4 c-7 -2 -18 1 -23 6 -8 8 -4 9 13 5 13 -4 18
-8 10 -11z m137 -7 c-3 -3 -9 2 -12 12 -6 14 -5 15 5 6 7 -7 10 -15 7 -18z
m29 3 c-3 -8 -6 -5 -6 6 -1 11 2 17 5 13 3 -3 4 -12 1 -19z m74 4 c-7 -2 -18
1 -23 6 -8 8 -4 9 13 5 13 -4 18 -8 10 -11z m137 -7 c-3 -3 -9 2 -12 12 -6 14
-5 15 5 6 7 -7 10 -15 7 -18z m29 3 c-3 -8 -6 -5 -6 6 -1 11 2 17 5 13 3 -3 4
-12 1 -19z m74 4 c-7 -2 -18 1 -23 6 -8 8 -4 9 13 5 13 -4 18 -8 10 -11z m137
-7 c-3 -3 -9 2 -12 12 -6 14 -5 15 5 6 7 -7 10 -15 7 -18z m29 3 c-3 -8 -6 -5
-6 6 -1 11 2 17 5 13 3 -3 4 -12 1 -19z m74 4 c-7 -2 -18 1 -23 6 -8 8 -4 9
13 5 13 -4 18 -8 10 -11z m137 -7 c-3 -3 -9 2 -12 12 -6 14 -5 15 5 6 7 -7 10
-15 7 -18z m29 3 c-3 -8 -6 -5 -6 6 -1 11 2 17 5 13 3 -3 4 -12 1 -19z m74 4
c-7 -2 -18 1 -23 6 -8 8 -4 9 13 5 13 -4 18 -8 10 -11z m137 -7 c-3 -3 -9 2
-12 12 -6 14 -5 15 5 6 7 -7 10 -15 7 -18z m29 3 c-3 -8 -6 -5 -6 6 -1 11 2
17 5 13 3 -3 4 -12 1 -19z m74 4 c-7 -2 -18 1 -23 6 -8 8 -4 9 13 5 13 -4 18
-8 10 -11z m137 -7 c-3 -3 -9 2 -12 12 -6 14 -5 15 5 6 7 -7 10 -15 7 -18z
m29 3 c-3 -8 -6 -5 -6 6 -1 11 2 17 5 13 3 -3 4 -12 1 -19z m74 4 c-7 -2 -18
1 -23 6 -8 8 -4 9 13 5 13 -4 18 -8 10 -11z m137 -7 c-3 -3 -9 2 -12 12 -6 14
-5 15 5 6 7 -7 10 -15 7 -18z m29 3 c-3 -8 -6 -5 -6 6 -1 11 2 17 5 13 3 -3 4
-12 1 -19z m74 4 c-7 -2 -18 1 -23 6 -8 8 -4 9 13 5 13 -4 18 -8 10 -11z m137
-7 c-3 -3 -9 2 -12 12 -6 14 -5 15 5 6 7 -7 10 -15 7 -18z m29 3 c-3 -8 -6 -5
-6 6 -1 11 2 17 5 13 3 -3 4 -12 1 -19z m74 4 c-7 -2 -18 1 -23 6 -8 8 -4 9
13 5 13 -4 18 -8 10 -11z m137 -7 c-3 -3 -9 2 -12 12 -6 14 -5 15 5 6 7 -7 10
-15 7 -18z m29 3 c-3 -8 -6 -5 -6 6 -1 11 2 17 5 13 3 -3 4 -12 1 -19z m74 4
c-7 -2 -18 1 -23 6 -8 8 -4 9 13 5 13 -4 18 -8 10 -11z m137 -7 c-3 -3 -9 2
-12 12 -6 14 -5 15 5 6 7 -7 10 -15 7 -18z m29 3 c-3 -8 -6 -5 -6 6 -1 11 2
17 5 13 3 -3 4 -12 1 -19z m74 4 c-7 -2 -18 1 -23 6 -8 8 -4 9 13 5 13 -4 18
-8 10 -11z m137 -7 c-3 -3 -9 2 -12 12 -6 14 -5 15 5 6 7 -7 10 -15 7 -18z
m29 3 c-3 -8 -6 -5 -6 6 -1 11 2 17 5 13 3 -3 4 -12 1 -19z m74 4 c-7 -2 -18
1 -23 6 -8 8 -4 9 13 5 13 -4 18 -8 10 -11z m137 -7 c-3 -3 -9 2 -12 12 -6 14
-5 15 5 6 7 -7 10 -15 7 -18z m29 3 c-3 -8 -6 -5 -6 6 -1 11 2 17 5 13 3 -3 4
-12 1 -19z m74 4 c-7 -2 -18 1 -23 6 -8 8 -4 9 13 5 13 -4 18 -8 10 -11z m137
-7 c-3 -3 -9 2 -12 12 -6 14 -5 15 5 6 7 -7 10 -15 7 -18z m29 3 c-3 -8 -6 -5
-6 6 -1 11 2 17 5 13 3 -3 4 -12 1 -19z m74 4 c-7 -2 -18 1 -23 6 -8 8 -4 9
13 5 13 -4 18 -8 10 -11z m137 -7 c-3 -3 -9 2 -12 12 -6 14 -5 15 5 6 7 -7 10
-15 7 -18z m29 3 c-3 -8 -6 -5 -6 6 -1 11 2 17 5 13 3 -3 4 -12 1 -19z m53 12
c0 -5 -5 -10 -11 -10 -5 0 -7 5 -4 10 3 6 8 10 11 10 2 0 4 -4 4 -10z m35 0
c-3 -5 -12 -10 -18 -10 -7 0 -6 4 3 10 19 12 23 12 15 0z m65 -2 c0 -4 -6 -8
-14 -8 -8 0 -17 4 -20 8 -2 4 4 8 15 8 10 0 19 -4 19 -8z m-4076 -21 c10 11
37 12 30 2 -3 -5 1 -10 8 -10 75 -6 106 -1 72 12 -14 6 -15 8 -3 8 9 1 24 -9
35 -21 10 -13 15 -20 10 -16 -5 4 -15 3 -22 -3 -8 -7 -14 -7 -19 1 -4 7 -12 7
-26 0 -10 -6 -19 -8 -19 -5 0 3 -9 1 -20 -5 -15 -8 -21 -6 -30 11 -10 17 -14
18 -28 7 -9 -7 -14 -8 -10 -4 4 5 2 16 -5 25 -10 14 -10 14 4 4 9 -7 19 -10
23 -6z m240 0 c10 11 37 12 30 2 -3 -5 1 -10 8 -10 75 -6 106 -1 72 12 -14 6
-15 8 -3 8 9 1 24 -9 35 -21 10 -12 14 -18 7 -15 -6 4 -14 4 -17 -1 -3 -5 -20
-8 -38 -7 -18 1 -41 -2 -50 -7 -13 -6 -20 -3 -28 13 -10 17 -14 18 -28 7 -9
-7 -14 -8 -10 -4 4 5 2 16 -5 25 -10 14 -10 14 4 4 9 -7 19 -10 23 -6z m240 0
c10 11 37 12 30 2 -3 -5 1 -10 8 -10 75 -6 106 -1 72 12 -14 6 -15 8 -3 8 9 1
24 -9 35 -21 10 -13 15 -20 10 -16 -5 4 -15 3 -22 -3 -8 -7 -14 -7 -19 1 -4 7
-12 7 -26 0 -10 -6 -19 -8 -19 -5 0 3 -9 1 -20 -5 -15 -8 -21 -6 -30 11 -10
17 -14 18 -28 7 -9 -7 -14 -8 -10 -4 4 5 2 16 -5 25 -10 14 -10 14 4 4 9 -7
19 -10 23 -6z m240 0 c10 11 37 12 30 2 -3 -5 1 -10 8 -10 75 -6 106 -1 72 12
-14 6 -15 8 -3 8 9 1 24 -9 35 -21 10 -12 14 -18 7 -15 -6 4 -14 4 -17 -1 -3
-5 -20 -8 -38 -7 -18 1 -41 -2 -50 -7 -13 -6 -20 -3 -28 13 -10 17 -14 18 -28
7 -9 -7 -14 -8 -10 -4 4 5 2 16 -5 25 -10 14 -10 14 4 4 9 -7 19 -10 23 -6z
m240 0 c10 11 37 12 30 2 -3 -5 1 -10 8 -10 75 -6 106 -1 72 12 -14 6 -15 8
-3 8 9 1 24 -9 35 -21 10 -13 15 -20 10 -16 -5 4 -15 3 -22 -3 -8 -7 -14 -7
-19 1 -4 7 -12 7 -26 0 -10 -6 -19 -8 -19 -5 0 3 -9 1 -20 -5 -15 -8 -21 -6
-30 11 -10 17 -14 18 -28 7 -9 -7 -14 -8 -10 -4 4 5 2 16 -5 25 -10 14 -10 14
4 4 9 -7 19 -10 23 -6z m240 0 c10 11 37 12 30 2 -3 -5 1 -10 8 -10 75 -6 106
-1 72 12 -14 6 -15 8 -3 8 9 1 24 -9 35 -21 10 -12 14 -18 7 -15 -6 4 -14 4
-17 -1 -3 -5 -20 -8 -38 -7 -18 1 -41 -2 -50 -7 -13 -6 -20 -3 -28 13 -10 17
-14 18 -28 7 -9 -7 -14 -8 -10 -4 4 5 2 16 -5 25 -10 14 -10 14 4 4 9 -7 19
-10 23 -6z m240 0 c10 11 37 12 30 2 -3 -5 1 -10 8 -10 75 -6 106 -1 72 12
-14 6 -15 8 -3 8 9 1 24 -9 35 -21 10 -13 15 -20 10 -16 -5 4 -15 3 -22 -3 -8
-7 -14 -7 -19 1 -4 7 -12 7 -26 0 -10 -6 -19 -8 -19 -5 0 3 -9 1 -20 -5 -15
-8 -21 -6 -30 11 -10 17 -14 18 -28 7 -9 -7 -14 -8 -10 -4 4 5 2 16 -5 25 -10
14 -10 14 4 4 9 -7 19 -10 23 -6z m240 0 c10 11 37 12 30 2 -3 -5 1 -10 8 -10
75 -6 106 -1 72 12 -14 6 -15 8 -3 8 9 1 24 -9 35 -21 10 -12 14 -18 7 -15 -6
4 -14 4 -17 -1 -3 -5 -20 -8 -38 -7 -18 1 -41 -2 -50 -7 -13 -6 -20 -3 -28 13
-10 17 -14 18 -28 7 -9 -7 -14 -8 -10 -4 4 5 2 16 -5 25 -10 14 -10 14 4 4 9
-7 19 -10 23 -6z m240 0 c10 11 37 12 30 2 -3 -5 1 -10 8 -10 75 -6 106 -1 72
12 -14 6 -15 8 -3 8 9 1 24 -9 35 -21 10 -13 15 -20 10 -16 -5 4 -15 3 -22 -3
-8 -7 -14 -7 -19 1 -4 7 -12 7 -26 0 -10 -6 -19 -8 -19 -5 0 3 -9 1 -20 -5
-15 -8 -21 -6 -30 11 -10 17 -14 18 -28 7 -9 -7 -14 -8 -10 -4 4 5 2 16 -5 25
-10 14 -10 14 4 4 9 -7 19 -10 23 -6z m240 0 c10 11 37 12 30 2 -3 -5 1 -10 8
-10 75 -6 106 -1 72 12 -14 6 -15 8 -3 8 9 1 24 -9 35 -21 10 -12 14 -18 7
-15 -6 4 -14 4 -17 -1 -3 -5 -20 -8 -38 -7 -18 1 -41 -2 -50 -7 -13 -6 -20 -3
-28 13 -10 17 -14 18 -28 7 -9 -7 -14 -8 -10 -4 4 5 2 16 -5 25 -10 14 -10 14
4 4 9 -7 19 -10 23 -6z m240 0 c10 11 37 12 30 2 -3 -5 1 -10 8 -10 75 -6 106
-1 72 12 -14 6 -15 8 -3 8 9 1 24 -9 35 -21 10 -13 15 -20 10 -16 -5 4 -15 3
-22 -3 -8 -7 -14 -7 -19 1 -4 7 -12 7 -26 0 -10 -6 -19 -8 -19 -5 0 3 -9 1
-20 -5 -15 -8 -21 -6 -30 11 -10 17 -14 18 -28 7 -9 -7 -14 -8 -10 -4 4 5 2
16 -5 25 -10 14 -10 14 4 4 9 -7 19 -10 23 -6z m240 0 c10 11 37 12 30 2 -3
-5 1 -10 8 -10 75 -6 106 -1 72 12 -14 6 -15 8 -3 8 9 1 24 -9 35 -21 10 -12
14 -18 7 -15 -6 4 -14 4 -17 -1 -3 -5 -20 -8 -38 -7 -18 1 -41 -2 -50 -7 -13
-6 -20 -3 -28 13 -10 17 -14 18 -28 7 -9 -7 -14 -8 -10 -4 4 5 2 16 -5 25 -10
14 -10 14 4 4 9 -7 19 -10 23 -6z m240 0 c10 11 37 12 30 2 -3 -5 1 -10 8 -10
75 -6 106 -1 72 12 -14 6 -15 8 -3 8 9 1 24 -9 35 -21 10 -13 15 -20 10 -16
-5 4 -15 3 -22 -3 -8 -7 -14 -7 -19 1 -4 7 -12 7 -26 0 -10 -6 -19 -8 -19 -5
0 3 -9 1 -20 -5 -15 -8 -21 -6 -30 11 -10 17 -14 18 -28 7 -9 -7 -14 -8 -10
-4 4 5 2 16 -5 25 -10 14 -10 14 4 4 9 -7 19 -10 23 -6z m240 0 c10 11 37 12
30 2 -3 -5 1 -10 8 -10 75 -6 106 -1 72 12 -14 6 -15 8 -3 8 9 1 24 -9 35 -21
10 -12 14 -18 7 -15 -6 4 -14 4 -17 -1 -3 -5 -20 -8 -38 -7 -18 1 -41 -2 -50
-7 -13 -6 -20 -3 -28 13 -10 17 -14 18 -28 7 -9 -7 -14 -8 -10 -4 4 5 2 16 -5
25 -10 14 -10 14 4 4 9 -7 19 -10 23 -6z m240 0 c10 11 37 12 30 2 -3 -5 1
-10 8 -10 75 -6 106 -1 72 12 -14 6 -15 8 -3 8 9 1 24 -9 35 -21 10 -13 15
-20 10 -16 -5 4 -15 3 -22 -3 -8 -7 -14 -7 -19 1 -4 7 -12 7 -26 0 -10 -6 -19
-8 -19 -5 0 3 -9 1 -20 -5 -15 -8 -21 -6 -30 11 -10 17 -14 18 -28 7 -9 -7
-14 -8 -10 -4 4 5 2 16 -5 25 -10 14 -10 14 4 4 9 -7 19 -10 23 -6z m240 0
c10 11 37 12 30 2 -3 -5 1 -10 8 -10 75 -6 106 -1 72 12 -14 6 -15 8 -3 8 9 1
24 -9 35 -21 10 -12 14 -18 7 -15 -6 4 -14 4 -17 -1 -3 -5 -20 -8 -38 -7 -18
1 -41 -2 -50 -7 -13 -6 -20 -3 -28 13 -10 17 -14 18 -28 7 -9 -7 -14 -8 -10
-4 4 5 2 16 -5 25 -10 14 -10 14 4 4 9 -7 19 -10 23 -6z m240 0 c10 11 37 12
30 2 -5 -9 1 -11 36 -11 36 0 41 2 34 15 -6 9 -4 9 7 1 8 -6 22 -10 32 -8 18
2 18 2 1 -17 -11 -13 -21 -16 -27 -10 -7 7 -17 7 -29 0 -10 -5 -18 -7 -18 -4
0 3 -9 1 -20 -5 -15 -8 -21 -6 -30 11 -10 17 -14 18 -28 7 -9 -7 -14 -8 -10
-4 4 5 2 16 -5 25 -10 14 -10 14 4 4 9 -7 19 -10 23 -6z"/>
<path d="M515 180 c3 -5 8 -10 11 -10 2 0 4 5 4 10 0 6 -5 10 -11 10 -5 0 -7
-4 -4 -10z"/>
<path d="M752 184 c10 -10 20 -16 22 -13 3 3 -5 11 -17 18 -21 13 -21 12 -5
-5z"/>
<path d="M992 184 c10 -10 20 -16 22 -13 3 3 -5 11 -17 18 -21 13 -21 12 -5
-5z"/>
<path d="M1232 184 c10 -10 20 -16 22 -13 3 3 -5 11 -17 18 -21 13 -21 12 -5
-5z"/>
<path d="M1472 184 c10 -10 20 -16 22 -13 3 3 -5 11 -17 18 -21 13 -21 12 -5
-5z"/>
<path d="M1712 184 c10 -10 20 -16 22 -13 3 3 -5 11 -17 18 -21 13 -21 12 -5
-5z"/>
<path d="M1952 184 c10 -10 20 -16 22 -13 3 3 -5 11 -17 18 -21 13 -21 12 -5
-5z"/>
<path d="M2192 184 c10 -10 20 -16 22 -13 3 3 -5 11 -17 18 -21 13 -21 12 -5
-5z"/>
<path d="M2432 184 c10 -10 20 -16 22 -13 3 3 -5 11 -17 18 -21 13 -21 12 -5
-5z"/>
<path d="M2672 184 c10 -10 20 -16 22 -13 3 3 -5 11 -17 18 -21 13 -21 12 -5
-5z"/>
<path d="M2912 184 c10 -10 20 -16 22 -13 3 3 -5 11 -17 18 -21 13 -21 12 -5
-5z"/>
<path d="M3152 184 c10 -10 20 -16 22 -13 3 3 -5 11 -17 18 -21 13 -21 12 -5
-5z"/>
<path d="M3392 184 c10 -10 20 -16 22 -13 3 3 -5 11 -17 18 -21 13 -21 12 -5
-5z"/>
<path d="M3632 184 c10 -10 20 -16 22 -13 3 3 -5 11 -17 18 -21 13 -21 12 -5
-5z"/>
<path d="M3872 184 c10 -10 20 -16 22 -13 3 3 -5 11 -17 18 -21 13 -21 12 -5
-5z"/>
<path d="M4112 184 c10 -10 20 -16 22 -13 3 3 -5 11 -17 18 -21 13 -21 12 -5
-5z"/>
<path d="M4352 184 c10 -10 20 -16 22 -13 3 3 -5 11 -17 18 -21 13 -21 12 -5
-5z"/>
<path d="M4592 184 c10 -10 20 -16 22 -13 3 3 -5 11 -17 18 -21 13 -21 12 -5
-5z"/>
<path d="M4686 178 c3 -5 10 -6 15 -3 13 9 11 12 -6 12 -8 0 -12 -4 -9 -9z"/>
<path d="M5086 4954 c-3 -7 -1 -16 5 -19 5 -4 12 1 15 9 3 9 11 13 18 9 6 -3
7 -2 3 2 -13 15 -35 14 -41 -1z"/>
<path d="M5114 4928 c-13 -21 -12 -50 3 -55 9 -4 10 -9 4 -17 -7 -8 -4 -12 12
-13 12 0 16 1 9 4 -10 4 -10 8 -1 19 7 8 9 17 5 21 -3 3 -6 0 -6 -8 -1 -8 -7
-3 -15 11 -9 18 -10 29 -3 37 6 7 8 13 5 13 -3 0 -9 -6 -13 -12z"/>
<path d="M5110 4783 c0 -7 5 -13 11 -13 8 0 8 -5 -1 -15 -10 -11 -10 -18 -1
-29 9 -11 9 -15 -1 -19 -8 -2 -9 -8 -4 -13 5 -5 11 -4 13 3 3 9 10 10 22 3 13
-6 18 -5 18 4 0 7 -7 13 -16 12 -21 -1 -21 34 1 59 16 19 16 20 -13 20 -17 1
-29 -4 -29 -12z"/>
<path d="M5127 683 c-2 -5 -2 -18 -1 -30 0 -13 -3 -23 -7 -23 -12 0 -11 -27 1
-35 6 -4 10 -3 9 2 -4 26 2 33 19 24 14 -7 19 -6 19 3 0 7 -7 13 -16 12 -16
-1 -18 6 -6 37 7 16 -10 25 -18 10z"/>
<path d="M5156 547 c3 -10 9 -15 12 -12 3 3 0 11 -7 18 -10 9 -11 8 -5 -6z"/>
<path d="M5110 539 c0 -5 4 -8 9 -4 6 3 15 -3 21 -12 11 -17 11 -17 6 0 -3 10
-6 21 -6 23 0 2 -7 4 -15 4 -8 0 -15 -5 -15 -11z"/>
<path d="M5140 419 c0 -5 5 -7 10 -4 6 3 10 8 10 11 0 2 -4 4 -10 4 -5 0 -10
-5 -10 -11z"/>
<path d="M354 209 c-3 -5 2 -16 10 -25 9 -8 16 -11 16 -6 0 5 7 9 15 9 8 0 15
-7 15 -14 0 -8 6 -13 13 -10 14 4 16 32 2 32 -5 0 -17 5 -25 10 -21 13 -39 15
-46 4z m42 -11 c3 -4 -1 -5 -10 -4 -8 1 -18 5 -22 8 -3 4 1 5 10 4 8 -1 18 -5
22 -8z"/>
<path d="M4970 200 c0 -5 5 -10 11 -10 5 0 7 5 4 10 -3 6 -8 10 -11 10 -2 0
-4 -4 -4 -10z"/>
<path d="M670 184 c0 -8 5 -12 10 -9 6 4 8 11 5 16 -9 14 -15 11 -15 -7z"/>
<path d="M910 184 c0 -8 5 -12 10 -9 6 4 8 11 5 16 -9 14 -15 11 -15 -7z"/>
<path d="M1150 184 c0 -8 5 -12 10 -9 6 4 8 11 5 16 -9 14 -15 11 -15 -7z"/>
<path d="M1390 184 c0 -8 5 -12 10 -9 6 4 8 11 5 16 -9 14 -15 11 -15 -7z"/>
<path d="M1630 184 c0 -8 5 -12 10 -9 6 4 8 11 5 16 -9 14 -15 11 -15 -7z"/>
<path d="M1870 184 c0 -8 5 -12 10 -9 6 4 8 11 5 16 -9 14 -15 11 -15 -7z"/>
<path d="M2110 184 c0 -8 5 -12 10 -9 6 4 8 11 5 16 -9 14 -15 11 -15 -7z"/>
<path d="M2350 184 c0 -8 5 -12 10 -9 6 4 8 11 5 16 -9 14 -15 11 -15 -7z"/>
<path d="M2590 184 c0 -8 5 -12 10 -9 6 4 8 11 5 16 -9 14 -15 11 -15 -7z"/>
<path d="M2830 184 c0 -8 5 -12 10 -9 6 4 8 11 5 16 -9 14 -15 11 -15 -7z"/>
<path d="M3070 184 c0 -8 5 -12 10 -9 6 4 8 11 5 16 -9 14 -15 11 -15 -7z"/>
<path d="M3310 184 c0 -8 5 -12 10 -9 6 4 8 11 5 16 -9 14 -15 11 -15 -7z"/>
<path d="M3550 184 c0 -8 5 -12 10 -9 6 4 8 11 5 16 -9 14 -15 11 -15 -7z"/>
<path d="M3790 184 c0 -8 5 -12 10 -9 6 4 8 11 5 16 -9 14 -15 11 -15 -7z"/>
<path d="M4030 184 c0 -8 5 -12 10 -9 6 4 8 11 5 16 -9 14 -15 11 -15 -7z"/>
<path d="M4270 184 c0 -8 5 -12 10 -9 6 4 8 11 5 16 -9 14 -15 11 -15 -7z"/>
<path d="M4510 184 c0 -8 5 -12 10 -9 6 4 8 11 5 16 -9 14 -15 11 -15 -7z"/>
<path d="M4812 184 c-12 -21 -53 -27 -45 -7 3 7 1 13 -4 13 -5 0 -9 -9 -10
-21 -2 -16 3 -20 16 -16 10 2 25 0 34 -4 10 -6 18 -5 23 2 4 8 3 9 -4 5 -14
-9 -15 4 -2 24 5 8 10 10 10 4 0 -6 10 -15 23 -21 20 -9 23 -8 24 11 1 11 -1
15 -4 9 -6 -16 -24 -17 -20 -1 4 19 -30 21 -41 2z"/>
<path d="M616 143 c-6 -14 -5 -15 5 -6 7 7 10 15 7 18 -3 3 -9 -2 -12 -12z"/>
<path d="M4725 152 c-10 -7 -18 -32 -10 -32 2 0 9 9 15 20 12 22 11 24 -5 12z"/>
<path d="M390 136 c7 -7 13 -7 20 0 6 6 3 10 -10 10 -13 0 -16 -4 -10 -10z"/>
<path d="M430 146 c0 -2 7 -7 16 -10 8 -3 12 -2 9 4 -6 10 -25 14 -25 6z"/>
<path d="M556 142 c-3 -5 1 -9 9 -9 8 0 12 4 9 9 -3 4 -7 8 -9 8 -2 0 -6 -4
-9 -8z"/>
</g>
</svg>
